<svg width="20" height="20" viewBox="0 0 20 20" fill="none" xmlns="http://www.w3.org/2000/svg">
<path d="M1.70614 8.75561H18.7531C18.9791 8.75561 19.1959 8.8581 19.3558 9.04052C19.5156 9.22294 19.6054 9.47035 19.6054 9.72833C19.6054 9.98631 19.5156 10.2337 19.3558 10.4161C19.1959 10.5986 18.9791 10.701 18.7531 10.701H1.70614C1.48008 10.701 1.26328 10.5986 1.10344 10.4161C0.943592 10.2337 0.853792 9.98631 0.853792 9.72833C0.853792 9.47035 0.943592 9.22294 1.10344 9.04052C1.26328 8.8581 1.48008 8.75561 1.70614 8.75561Z" fill="white"/>
<path d="M2.05909 9.72838L9.12844 17.7941C9.28849 17.9768 9.3784 18.2245 9.3784 18.4828C9.3784 18.7411 9.28849 18.9888 9.12844 19.1715C8.96839 19.3541 8.75132 19.4568 8.52498 19.4568C8.29864 19.4568 8.08157 19.3541 7.92152 19.1715L0.250409 10.4171C0.171033 10.3267 0.108057 10.2194 0.0650873 10.1012C0.0221181 9.98301 0 9.85633 0 9.72838C0 9.60043 0.0221181 9.47375 0.0650873 9.35557C0.108057 9.2374 0.171033 9.13005 0.250409 9.0397L7.92152 0.285261C8.08157 0.102611 8.29864 0 8.52498 0C8.75132 0 8.96839 0.102611 9.12844 0.285261C9.28849 0.467911 9.3784 0.715638 9.3784 0.973944C9.3784 1.23225 9.28849 1.47998 9.12844 1.66263L2.05909 9.72838Z" fill="white"/>
</svg>
