<svg width="44" height="44" viewBox="0 0 44 44" fill="none" xmlns="http://www.w3.org/2000/svg">
<rect width="44" height="44" rx="22" fill="#318DB6"/>
<path d="M7 20.6667C7 24.5565 8.58116 28.287 11.3957 31.0376C14.2101 33.7881 18.0274 35.3333 22.0077 35.3333C25.988 35.3333 29.8052 33.7881 32.6197 31.0376C35.4342 28.287 37.0154 24.5565 37.0154 20.6667C37.0154 16.7768 35.4342 13.0463 32.6197 10.2958C29.8052 7.54523 25.988 6 22.0077 6C18.0274 6 14.2101 7.54523 11.3957 10.2958C8.58116 13.0463 7 16.7768 7 20.6667Z" fill="#FFF59D"/>
<path d="M31.7626 20.6666C31.7626 15.02 26.8101 10.5466 20.882 11.2066C16.3797 11.72 12.7779 15.24 12.3277 19.64C11.9525 23.0133 13.3782 26.02 15.7794 27.9266C16.83 28.8066 17.5053 30.0533 17.5053 31.4466V31.6666H26.5099V31.5933C26.5099 30.2733 27.1102 28.9533 28.1608 28.0733C30.3369 26.3133 31.7626 23.6733 31.7626 20.6666Z" fill="#FBC02D"/>
<path d="M26.96 19.3467L24.7089 17.88C24.4838 17.7334 24.1086 17.7334 23.8834 17.88L22.0075 19.0534L20.2066 17.88C19.9814 17.7334 19.6063 17.7334 19.3811 17.88L17.13 19.3467C16.9799 19.4934 16.8298 19.64 16.8298 19.86C16.8298 20.08 16.8298 20.3 16.9799 20.4467L19.8314 23.8934V31.6667H21.3321V23.6C21.3321 23.4534 21.2571 23.3067 21.1821 23.16L18.7058 20.1534L19.8314 19.42L21.6323 20.5934C21.8574 20.74 22.2326 20.74 22.4577 20.5934L24.2586 19.42L25.3842 20.1534L22.9079 23.16C22.8329 23.3067 22.7579 23.4534 22.7579 23.6V31.6667H24.2586V23.8934L27.1101 20.4467C27.2602 20.3 27.3352 20.08 27.2602 19.86C27.1851 19.64 27.1101 19.42 26.96 19.3467Z" fill="#FFF59D"/>
<path d="M19.7566 36.8C19.7566 37.3835 19.9938 37.943 20.4159 38.3556C20.8381 38.7682 21.4107 39 22.0077 39C22.6048 39 23.1774 38.7682 23.5996 38.3556C24.0217 37.943 24.2589 37.3835 24.2589 36.8C24.2589 36.2165 24.0217 35.6569 23.5996 35.2443C23.1774 34.8318 22.6048 34.6 22.0077 34.6C21.4107 34.6 20.8381 34.8318 20.4159 35.2443C19.9938 35.6569 19.7566 36.2165 19.7566 36.8Z" fill="#5C6BC0"/>
<path d="M23.5084 37.5333H20.5069C18.8561 37.5333 17.5054 36.2134 17.5054 34.6V30.9333H26.51V34.6C26.51 36.2134 25.1593 37.5333 23.5084 37.5333Z" fill="#9FA8DA"/>
<path d="M26.51 34.6L17.8055 35.7734C18.0306 36.2867 18.4809 36.8 19.0061 37.0934L26.0598 36.14C26.3599 35.7 26.51 35.1867 26.51 34.6ZM17.5054 32.9134V34.38L26.51 33.1334V31.6667L17.5054 32.9134Z" fill="#5C6BC0"/>
</svg>
