<svg width="26" height="35" viewBox="0 0 26 35" fill="none" xmlns="http://www.w3.org/2000/svg">
<path d="M9.40909 25.0909C10.2752 25.0909 10.9773 24.3888 10.9773 23.5227C10.9773 22.6566 10.2752 21.9545 9.40909 21.9545C8.54302 21.9545 7.84091 22.6566 7.84091 23.5227C7.84091 24.3888 8.54302 25.0909 9.40909 25.0909Z" fill="#FF8725"/>
<path d="M17.25 26.6591C17.25 27.5252 16.5479 28.2273 15.6818 28.2273C14.8157 28.2273 14.1136 27.5252 14.1136 26.6591C14.1136 25.793 14.8157 25.0909 15.6818 25.0909C16.5479 25.0909 17.25 25.793 17.25 26.6591Z" fill="#FF8725"/>
<path fill-rule="evenodd" clip-rule="evenodd" d="M17.25 3.13636V10.321C21.8476 12.1821 25.0909 16.6895 25.0909 21.9545C25.0909 28.8832 19.4742 34.5 12.5455 34.5C5.61679 34.5 0 28.8832 0 21.9545C0 16.6895 3.24327 12.1821 7.84091 10.321V3.13636H6.27273C5.40665 3.13636 4.70455 2.43426 4.70455 1.56818C4.70455 0.702106 5.40665 0 6.27273 0H18.8182C19.6843 0 20.3864 0.702106 20.3864 1.56818C20.3864 2.43426 19.6843 3.13636 18.8182 3.13636H17.25ZM9.01772 13.2282L9.99747 12.8316C10.5898 12.5919 10.9773 12.0169 10.9773 11.378V3.13636H14.1136V11.378C14.1136 12.0169 14.5011 12.5919 15.0934 12.8316L16.0732 13.2282C17.4186 13.7728 18.6082 14.6187 19.5593 15.6818H5.53159C6.48268 14.6187 7.67231 13.7728 9.01772 13.2282ZM3.67174 18.8182C3.32494 19.7996 3.13636 20.8554 3.13636 21.9545C3.13636 27.151 7.34896 31.3636 12.5455 31.3636C17.7419 31.3636 21.9545 27.151 21.9545 21.9545C21.9545 20.8554 21.7661 19.7996 21.4192 18.8182H3.67174Z" fill="#FF8725"/>
</svg>
