<svg width="28" height="28" viewBox="0 0 28 28" fill="none" xmlns="http://www.w3.org/2000/svg">
<path d="M12.32 21.5831C12.32 22.0473 12.143 22.4924 11.8279 22.8206C11.5129 23.1488 11.0856 23.3332 10.64 23.3332H7.84V26.2499C7.84 26.7141 7.663 27.1592 7.34794 27.4874C7.03288 27.8156 6.60556 28 6.16 28C5.71444 28 5.28712 27.8156 4.97206 27.4874C4.657 27.1592 4.48 26.7141 4.48 26.2499V23.3332H1.68C1.23444 23.3332 0.807122 23.1488 0.492061 22.8206C0.177 22.4924 0 22.0473 0 21.5831C0 21.119 0.177 20.6739 0.492061 20.3457C0.807122 20.0175 1.23444 19.8331 1.68 19.8331H4.48V16.9163C4.48 16.4522 4.657 16.0071 4.97206 15.6789C5.28712 15.3507 5.71444 15.1663 6.16 15.1663C6.60556 15.1663 7.03288 15.3507 7.34794 15.6789C7.663 16.0071 7.84 16.4522 7.84 16.9163V19.8331H10.64C11.0856 19.8331 11.5129 20.0175 11.8279 20.3457C12.143 20.6739 12.32 21.119 12.32 21.5831ZM10.64 3.49925H1.68C1.23444 3.49925 0.807122 3.68363 0.492061 4.01183C0.177 4.34003 0 4.78516 0 5.24931C0 5.71345 0.177 6.15858 0.492061 6.48678C0.807122 6.81498 1.23444 6.99936 1.68 6.99936H10.64C11.0856 6.99936 11.5129 6.81498 11.8279 6.48678C12.143 6.15858 12.32 5.71345 12.32 5.24931C12.32 4.78516 12.143 4.34003 11.8279 4.01183C11.5129 3.68363 11.0856 3.49925 10.64 3.49925ZM17.36 20.4261H26.32C26.7656 20.4261 27.1929 20.2417 27.5079 19.9135C27.823 19.5853 28 19.1402 28 18.6761C28 18.2119 27.823 17.7668 27.5079 17.4386C27.1929 17.1104 26.7656 16.926 26.32 16.926H17.36C16.9144 16.926 16.4871 17.1104 16.1721 17.4386C15.857 17.7668 15.68 18.2119 15.68 18.6761C15.68 19.1402 15.857 19.5853 16.1721 19.9135C16.4871 20.2417 16.9144 20.4261 17.36 20.4261ZM26.32 22.7402H17.36C16.9144 22.7402 16.4871 22.9245 16.1721 23.2527C15.857 23.5809 15.68 24.0261 15.68 24.4902C15.68 24.9544 15.857 25.3995 16.1721 25.7277C16.4871 26.0559 16.9144 26.2403 17.36 26.2403H26.32C26.7656 26.2403 27.1929 26.0559 27.5079 25.7277C27.823 25.3995 28 24.9544 28 24.4902C28 24.0261 27.823 23.5809 27.5079 23.2527C27.1929 22.9245 26.7656 22.7402 26.32 22.7402ZM17.2921 9.9869C17.6071 10.3151 18.0344 10.4995 18.48 10.4995C18.9256 10.4995 19.3529 10.3151 19.6679 9.9869L21.84 7.72428L24.0121 9.9869C24.3272 10.3147 24.7544 10.4988 25.1998 10.4986C25.6451 10.4985 26.0722 10.3141 26.3871 9.98603C26.702 9.65798 26.879 9.21309 26.8792 8.74916C26.8793 8.28523 26.7027 7.84021 26.388 7.51193L24.2159 5.24931L26.388 2.98669C26.7027 2.6584 26.8793 2.21339 26.8792 1.74945C26.879 1.28552 26.702 0.840634 26.3871 0.512583C26.0722 0.184532 25.6451 0.000162719 25.1998 1.07657e-07C24.7544 -0.000162504 24.3272 0.183895 24.0121 0.511716L21.84 2.77434L19.6679 0.511716C19.3528 0.183895 18.9256 -0.000162504 18.4802 1.07657e-07C18.0349 0.000162719 17.6078 0.184532 17.2929 0.512583C16.978 0.840634 16.801 1.28552 16.8008 1.74945C16.8007 2.21339 16.9774 2.6584 17.2921 2.98669L19.4641 5.24931L17.2921 7.51193C16.977 7.84014 16.8 8.28527 16.8 8.74941C16.8 9.21355 16.977 9.65869 17.2921 9.9869Z" fill="#FF8725"/>
</svg>
