<svg width="35" height="34" viewBox="0 0 35 34" fill="none" xmlns="http://www.w3.org/2000/svg">
<path d="M24.6007 28.1994L23.6375 20.4939C23.3553 18.2362 21.4361 16.542 19.161 16.542H17.5042H15.8475C13.5723 16.542 11.6531 18.2362 11.3709 20.4939L10.4077 28.1994C10.1833 29.9945 11.5831 31.5802 13.3921 31.5802H17.5042H21.6163C23.4254 31.5802 24.8251 29.9945 24.6007 28.1994Z" stroke="#FF8725" stroke-width="3.00763" stroke-linecap="round" stroke-linejoin="round"/>
<path d="M17.5042 10.5267C19.9958 10.5267 22.0157 8.50687 22.0157 6.01527C22.0157 3.52366 19.9958 1.50381 17.5042 1.50381C15.0126 1.50381 12.9928 3.52366 12.9928 6.01527C12.9928 8.50687 15.0126 10.5267 17.5042 10.5267Z" stroke="#FF8725" stroke-width="3.00763"/>
<path d="M5.47367 15.0382C7.13474 15.0382 8.4813 13.6916 8.4813 12.0306C8.4813 10.3695 7.13474 9.02292 5.47367 9.02292C3.8126 9.02292 2.46603 10.3695 2.46603 12.0306C2.46603 13.6916 3.8126 15.0382 5.47367 15.0382Z" stroke="#FF8725" stroke-width="3.00763"/>
<path d="M29.5347 15.0382C31.1958 15.0382 32.5424 13.6916 32.5424 12.0306C32.5424 10.3695 31.1958 9.02292 29.5347 9.02292C27.8737 9.02292 26.5271 10.3695 26.5271 12.0306C26.5271 13.6916 27.8737 15.0382 29.5347 15.0382Z" stroke="#FF8725" stroke-width="3.00763"/>
<path d="M5.47363 19.5496H5.01384C3.54361 19.5496 2.28885 20.6125 2.04714 22.0628L1.54586 25.0704C1.24033 26.9037 2.65404 28.5725 4.51258 28.5725H9.98509" stroke="#FF8725" stroke-width="3.00763" stroke-linecap="round" stroke-linejoin="round"/>
<path d="M29.5348 19.5496H29.9945C31.4648 19.5496 32.7195 20.6125 32.9612 22.0628L33.4626 25.0704C33.768 26.9037 32.3546 28.5725 30.496 28.5725C28.749 28.5725 26.6703 28.5725 25.0233 28.5725" stroke="#FF8725" stroke-width="3.00763" stroke-linecap="round" stroke-linejoin="round"/>
</svg>
