<svg width="22" height="37" viewBox="0 0 22 37" fill="none" xmlns="http://www.w3.org/2000/svg">
<path d="M13.7198 24.5348V16.8119H7.53508V24.5348L1.85222 31.6262C1.52803 32.0366 1.35126 32.5441 1.35032 33.0672C1.35459 33.6741 1.5987 34.2547 2.02939 34.6824C2.46008 35.11 3.04242 35.35 3.64937 35.35H17.6056C18.2125 35.35 18.7948 35.11 19.2255 34.6824C19.6562 34.2547 19.9003 33.6741 19.9046 33.0672C19.9037 32.5441 19.7269 32.0366 19.4027 31.6262L13.7198 24.5348Z" stroke="#FF8725" stroke-width="2.7" stroke-miterlimit="10"/>
<path d="M4.44271 16.8119H16.8122" stroke="#FF8725" stroke-width="2.7" stroke-miterlimit="10"/>
<path d="M16.8122 1.35001H19.9046V2.96905C19.9046 4.60935 19.253 6.18247 18.0931 7.34234C16.9333 8.50221 15.3602 9.15381 13.7199 9.15381H10.6275V7.53477C10.6275 5.89447 11.2791 4.32135 12.4389 3.16148C13.5988 2.00161 15.1719 1.35001 16.8122 1.35001Z" stroke="#FF8725" stroke-width="2.7" stroke-miterlimit="10"/>
<path d="M1.35034 2.8881H4.44272C5.25491 2.8881 6.05915 3.04807 6.80952 3.35888C7.55989 3.6697 8.2417 4.12526 8.816 4.69957C9.39031 5.27388 9.84588 5.95568 10.1567 6.70605C10.4675 7.45642 10.6275 8.26066 10.6275 9.07286V10.6919H7.5351C6.71742 10.6919 5.90786 10.5299 5.15324 10.215C4.39862 9.90014 3.71392 9.43878 3.13875 8.85759C2.56359 8.27641 2.10938 7.58694 1.80241 6.82908C1.49543 6.07122 1.34178 5.26001 1.35034 4.44238V2.82333V2.8881Z" stroke="#FF8725" stroke-width="2.7" stroke-miterlimit="10"/>
<path d="M10.6275 16.8119V9.07285" stroke="#FF8725" stroke-width="2.7" stroke-miterlimit="10"/>
</svg>
