<svg width="27" height="36" viewBox="0 0 27 36" fill="none" xmlns="http://www.w3.org/2000/svg">
<path d="M26.9964 15.4342C26.9964 15.4244 26.9964 15.4133 26.9964 15.401C26.9964 7.72016 21.5229 1.33356 14.3094 0.0257871L14.216 0.0122796C14.1724 0.00491181 14.1214 0 14.0705 0C13.6219 0 13.2472 0.325408 13.1647 0.755193L13.1635 0.761333C13.155 0.809224 13.1502 0.863253 13.1502 0.918511C13.1502 1.37163 13.4727 1.74861 13.8983 1.82597L13.9044 1.8272C14.6792 1.97578 15.3498 2.16366 15.9985 2.39943L15.9039 2.36873V3.89753L15.4649 4.77184C14.1918 4.2168 12.7088 3.89262 11.1519 3.89262C4.99331 3.89262 0 8.94935 0 15.1861C0 19.053 1.91948 22.4667 4.84659 24.5026L4.88418 24.5272H4.62348V26.3679L4.26577 27.0801C3.31755 26.4797 2.49544 25.8129 1.75942 25.0601L1.75821 25.0589C1.5933 24.887 1.3617 24.7802 1.10706 24.7802C0.603853 24.7802 0.196434 25.1928 0.196434 25.7024C0.196434 25.9516 0.294651 26.1788 0.453496 26.3446C2.85436 28.857 6.07976 30.5491 9.68712 30.9703L9.75866 30.9777V34.1581H5.81785C5.31585 34.1581 4.90843 34.5707 4.90843 35.079C4.90843 35.5874 5.31585 36 5.81785 36H15.5183C16.0203 36 16.4277 35.5874 16.4277 35.079C16.4277 34.5707 16.0203 34.1581 15.5183 34.1581H11.5775V31.0857C20.0957 31.055 26.9903 24.0606 27 15.4317V15.4305L26.9964 15.4342ZM25.1775 15.4342C25.1775 15.4489 25.1775 15.4673 25.1775 15.4858C25.1775 23.0868 19.0929 29.2487 11.5872 29.2487C9.77806 29.2487 8.05259 28.8914 6.47384 28.2418L6.56478 28.2749V26.5632L6.98797 25.7195C8.23569 26.2611 9.6859 26.5779 11.2101 26.5853H11.2125C12.4554 26.584 13.6498 26.379 14.7665 26.0008L14.6865 26.0241C19.2263 24.5247 22.4493 20.2748 22.4493 15.2635C22.4493 11.4028 20.5359 7.994 17.6172 5.95682L17.5796 5.93226H17.8076V4.16523L18.1968 3.38916C22.3911 5.78981 25.1763 10.2755 25.1763 15.4207C25.1763 15.4256 25.1763 15.4305 25.1763 15.4354L25.1775 15.4342ZM6.75515 17.4849L12.0189 20.2404C10.7214 21.7213 9.05052 22.8388 7.1553 23.4441L7.07891 23.465C6.70665 22.4016 6.49082 21.1749 6.49082 19.8978C6.49082 19.0419 6.58782 18.2094 6.7697 17.41L6.75515 17.4836V17.4849ZM9.64346 11.1609L15.3886 14.1608C15.0891 15.1935 14.7338 16.0801 14.3057 16.9225L14.3458 16.8353C13.9626 17.5856 13.5758 18.2216 13.1478 18.8246L13.1805 18.7767L7.24381 15.6687C7.51906 14.8558 7.80765 14.1768 8.13868 13.5235L8.09745 13.6131C8.5752 12.6774 9.08811 11.8743 9.6665 11.1265L9.64104 11.1609H9.64346ZM13.6983 21.1209L16.8703 22.7823C15.3582 23.993 13.4242 24.7249 11.3216 24.7249C10.6475 24.7249 9.99025 24.65 9.3573 24.5063L9.41672 24.5174C11.1022 23.6578 12.5245 22.517 13.6813 21.1405L13.697 21.1209H13.6983ZM18.2854 21.4499L14.815 19.6326C15.1958 19.0788 15.5777 18.4378 15.9209 17.7722L15.9682 17.6728C16.3513 16.936 16.7163 16.0604 17.0134 15.1542L17.0498 15.0277L20.4461 16.8009C20.2873 17.8262 19.989 18.7484 19.5682 19.597L19.5925 19.5429C19.2118 20.2674 18.7789 20.8949 18.2793 21.4598L18.2866 21.4512L18.2854 21.4499ZM17.5093 13.1944C17.6754 12.3938 17.7712 11.4753 17.7712 10.5334C17.7712 9.73892 17.7033 8.95917 17.5736 8.20275L17.5845 8.2838C19.3682 9.89119 20.5055 12.201 20.5674 14.7809V14.792L17.5093 13.1944ZM15.8105 12.3078L10.8766 9.73156C12.0904 8.48395 13.6012 7.53597 15.2928 7.00549L15.3679 6.98462C15.7426 8.0382 15.9585 9.25388 15.9585 10.5211C15.9585 11.1523 15.9051 11.7712 15.802 12.3717L15.8117 12.3078H15.8105ZM8.32057 6.18031C9.18997 5.88314 10.1915 5.71123 11.2319 5.71C11.8782 5.72351 12.5002 5.80209 13.0992 5.93963L13.0374 5.92735C11.5387 6.68868 10.2619 7.66613 9.18754 8.8376L9.18027 8.8462L6.14888 7.26336C6.77334 6.83603 7.49118 6.4701 8.25387 6.19995L8.31935 6.18031H8.32057ZM4.6065 8.53061L7.98711 10.2964C7.46086 11.0135 6.96008 11.8252 6.52477 12.6774L6.47869 12.7769C6.19495 13.3246 5.90273 13.9975 5.65173 14.6888L5.61171 14.8141L2.11834 12.9844C2.30265 12.1948 2.55486 11.5023 2.87861 10.8527L2.85436 10.9067C3.33453 9.99311 3.91777 9.20967 4.60408 8.53184L4.6065 8.52939V8.53061ZM2.29173 18.1652C2.01648 17.3117 1.85642 16.3306 1.85642 15.3114C1.85642 15.1751 1.85885 15.04 1.86491 14.9062L1.8637 14.9258L5.0697 16.6044C4.81749 17.5917 4.67198 18.7251 4.67198 19.8941C4.67198 20.6972 4.7411 21.4856 4.87205 22.2506L4.85993 22.1695C3.70436 21.1024 2.82041 19.7554 2.30871 18.2339L2.28931 18.1676L2.29173 18.1652Z" fill="#FF8725"/>
</svg>
