<svg width="41" height="34" viewBox="0 0 41 34" fill="none" xmlns="http://www.w3.org/2000/svg">
<path d="M21.4661 15.9005V11.6006C23.4858 11.9548 23.4862 13.2098 23.4862 13.6666H25.9066C25.9066 11.1426 24.2701 9.51411 21.4661 9.15955V7.44064H19.0457V9.15955C16.2418 9.51411 14.6053 11.1425 14.6053 13.6666C14.6053 16.1908 16.2417 17.8191 19.0457 18.1737V22.4736C17.026 22.1195 17.0256 20.8645 17.0256 20.4076H14.6053C14.6053 22.9317 16.2417 24.5601 19.0457 24.9147V26.6336H21.4661V24.9147C24.27 24.5601 25.9066 22.9318 25.9066 20.4076C25.9066 17.8834 24.27 16.2551 21.4661 15.9005ZM19.0457 15.7326C17.026 15.3785 17.0256 14.1236 17.0256 13.6666C17.0256 13.2098 17.026 11.9548 19.0457 11.6006V15.7326ZM21.4661 22.4736V18.3416C23.4858 18.6957 23.4862 19.9507 23.4862 20.4076C23.4862 20.8645 23.4858 22.1195 21.4661 22.4736Z" fill="#FF8725"/>
<path d="M28.595 0H11.9169C7.14132 0 3.2559 3.88534 3.2559 8.66107V12.748L1.71131 11.2033L0 12.9149L4.46611 17.381L8.93223 12.9149L7.22076 11.2034L5.67625 12.7479V8.66107C5.67625 5.22002 8.47576 2.42035 11.9169 2.42035H28.595C32.0359 2.42035 34.8356 5.21986 34.8356 8.66107V14.8628H37.256V8.66107C37.256 3.88534 33.3706 0 28.595 0Z" fill="#FF8725"/>
<path d="M36.0457 17.2845L31.5797 21.7505L33.2912 23.4619L34.8357 21.9174V25.339C34.8357 28.78 32.0362 31.5797 28.595 31.5797H11.9169C8.4759 31.5797 5.67624 28.7802 5.67624 25.339V19.8026H3.25589V25.339C3.25589 30.1147 7.14123 34 11.9169 34H28.5949C33.3705 34 37.2559 30.1148 37.2559 25.339V21.9173L38.8005 23.4618L40.5118 21.7505L36.0457 17.2845Z" fill="#FF8725"/>
</svg>
