<svg width="35" height="39" viewBox="0 0 35 39" fill="none" xmlns="http://www.w3.org/2000/svg">
<path d="M28.9218 19.5C29.804 18.7355 30.6063 17.9718 31.3131 17.2204C34.9863 13.3151 34.8955 11.0024 34.1724 9.75C33.4492 8.49751 31.4915 7.26253 26.2732 8.49111C25.2691 8.72747 24.2066 9.04046 23.1034 9.42216C22.8824 8.27585 22.6222 7.19923 22.3249 6.21144C20.7794 1.07768 18.731 0 17.2849 0C15.8389 0 13.7906 1.07768 12.2451 6.21151C11.9477 7.19931 11.6875 8.276 11.4666 9.42223C10.3634 9.04053 9.30083 8.72747 8.29666 8.49118C3.07805 7.26268 1.12051 8.49774 0.39733 9.75008C-0.32577 11.0024 -0.416567 13.3151 3.25667 17.2205C3.96347 17.9719 4.76571 18.7355 5.64793 19.5001C4.76571 20.2646 3.96347 21.0282 3.25667 21.7797C-0.416643 25.685 -0.32577 27.9977 0.39733 29.2501C0.909662 30.1373 2.04112 31.0159 4.51351 31.0159C5.53078 31.0159 6.77528 30.8671 8.2965 30.509C9.3006 30.2726 10.3631 29.9596 11.4664 29.5779C11.6874 30.7242 11.9476 31.8008 12.245 32.7886C13.7905 37.9223 15.8387 39 17.2849 39C18.731 39 20.7792 37.9223 22.3247 32.7885C22.6221 31.8007 22.8823 30.724 23.1033 29.5778C24.2064 29.9595 25.269 30.2725 26.2731 30.5088C27.7946 30.8671 29.0387 31.0158 30.0561 31.0157C32.528 31.0157 33.66 30.1371 34.1722 29.2499C34.8953 27.9976 34.9862 25.6849 31.3129 21.7795C30.6063 21.0282 29.804 20.2645 28.9218 19.5ZM7.74959 28.1847C4.12145 29.0388 2.70656 28.474 2.46532 28.0561C2.22408 27.6382 2.44247 26.1305 4.99613 23.4155C5.73203 22.6331 6.58165 21.8346 7.52504 21.0346C8.51603 21.8015 9.5784 22.5615 10.6971 23.3035C10.7804 24.6433 10.9074 25.9434 11.076 27.1851C9.91135 27.6019 8.79513 27.9385 7.74959 28.1847ZM10.5862 20.3329C10.1971 20.0566 9.8169 19.7788 9.44716 19.5C9.81697 19.2212 10.1971 18.9433 10.5862 18.6671C10.5825 18.9438 10.5804 19.2214 10.5804 19.5C10.5804 19.7786 10.5825 20.0563 10.5862 20.3329ZM10.6971 15.6964C9.5784 16.4383 8.51603 17.1984 7.52504 17.9653C6.58165 17.1653 5.73203 16.3668 4.99605 15.5845C2.44239 12.8695 2.22393 11.3618 2.46524 10.9438C2.61454 10.6852 3.21325 10.3703 4.5081 10.3703C5.30546 10.3703 6.36677 10.4897 7.74944 10.8152C8.79497 11.0613 9.91127 11.3979 11.0759 11.8148C10.9074 13.0565 10.7803 14.3566 10.6971 15.6964ZM21.3557 14.1151C21.1179 13.9736 20.8786 13.833 20.6373 13.6936C20.3959 13.5543 20.1545 13.4174 19.9129 13.2822C20.3468 13.0834 20.7775 12.893 21.2038 12.7122C21.2604 13.1719 21.3109 13.64 21.3557 14.1151ZM14.5315 6.8998C15.6059 3.33077 16.8023 2.38776 17.2849 2.38776C17.7674 2.38776 18.9639 3.33077 20.0383 6.8998C20.348 7.92827 20.6146 9.06331 20.8358 10.2803C19.6762 10.7551 18.4868 11.2951 17.2849 11.893C16.0829 11.2952 14.8935 10.7552 13.734 10.2804C13.9552 9.06339 14.2219 7.92827 14.5315 6.8998ZM13.366 12.7123C13.7925 12.8932 14.2231 13.0834 14.6569 13.2822C14.4154 13.4174 14.1739 13.5544 13.9326 13.6937C13.6913 13.833 13.452 13.9736 13.2142 14.1151C13.259 13.64 13.3095 13.1719 13.366 12.7123ZM13.2142 24.8849C13.452 25.0264 13.6913 25.167 13.9325 25.3064C14.1739 25.4457 14.4153 25.5826 14.6569 25.7178C14.223 25.9166 13.7924 26.1068 13.366 26.2878C13.3095 25.8281 13.259 25.36 13.2142 24.8849ZM20.0384 32.1002C18.964 35.6692 17.7676 36.6122 17.2849 36.6122C16.8024 36.6122 15.6059 35.6692 14.5316 32.1002C14.2219 31.0717 13.9552 29.9367 13.734 28.7196C14.8936 28.2448 16.0831 27.7049 17.2849 27.107C18.4869 27.7048 19.6764 28.2449 20.8359 28.7197C20.6147 29.9366 20.348 31.0717 20.0384 32.1002ZM21.2038 26.2878C20.7775 26.1069 20.3468 25.9166 19.9129 25.7178C20.1544 25.5826 20.3958 25.4456 20.6372 25.3063C20.8785 25.167 21.1179 25.0263 21.3557 24.8848C21.311 25.36 21.2604 25.8281 21.2038 26.2878ZM21.5513 21.9632C20.8672 22.3965 20.1636 22.8226 19.4433 23.2385C18.7229 23.6544 18.0022 24.0507 17.2849 24.4265C16.5676 24.0506 15.8468 23.6543 15.1264 23.2385C14.4061 22.8226 13.7026 22.3966 13.0184 21.9633C12.9853 21.1542 12.9681 20.3319 12.9681 19.5C12.9681 18.6682 12.9853 17.8459 13.0184 17.0367C13.7026 16.6035 14.4061 16.1773 15.1264 15.7615C15.8467 15.3456 16.5675 14.9493 17.2849 14.5735C18.0022 14.9494 18.7229 15.3457 19.4433 15.7615C20.1636 16.1774 20.8671 16.6035 21.5513 17.0368C21.5845 17.8459 21.6017 18.6682 21.6017 19.5C21.6018 20.3317 21.5845 21.1541 21.5513 21.9632ZM26.8204 10.8153C28.2032 10.4898 29.2644 10.3704 30.0619 10.3704C31.3564 10.3704 31.9553 10.6853 32.1046 10.944C32.3459 11.3619 32.1275 12.8696 29.5738 15.5846C28.8379 16.367 27.9883 17.1655 27.0449 17.9655C26.0539 17.1986 24.9916 16.4387 23.8729 15.6966C23.7896 14.3568 23.6626 13.0567 23.4939 11.8149C24.6585 11.3981 25.7748 11.0615 26.8204 10.8153ZM23.9837 18.6671C24.3727 18.9433 24.7529 19.2212 25.1227 19.5C24.7529 19.7788 24.3728 20.0566 23.9837 20.3329C23.9874 20.0562 23.9895 19.7786 23.9895 19.5C23.9896 19.2214 23.9874 18.9438 23.9837 18.6671ZM32.1046 28.0562C31.8633 28.4741 30.448 29.0386 26.8203 28.1847C25.7748 27.9386 24.6584 27.602 23.4939 27.1851C23.6626 25.9435 23.7896 24.6434 23.8729 23.3035C24.9916 22.5615 26.054 21.8015 27.0449 21.0346C27.9882 21.8346 28.8379 22.6332 29.5738 23.4155C32.1274 26.1305 32.3459 27.6383 32.1046 28.0562Z" fill="#FF8725"/>
<path d="M18.7118 18.6561L17.2544 17.8195L15.8011 18.6634L15.8053 20.3439L17.2627 21.1805L18.716 20.3366L18.7118 18.6561Z" fill="#FF8725"/>
</svg>
