<svg width="77" height="79" viewBox="0 0 77 79" fill="none" xmlns="http://www.w3.org/2000/svg">
<path fill-rule="evenodd" clip-rule="evenodd" d="M33.9949 5.04972C35.0929 3.68806 36.7501 2.89716 38.4999 2.89716C40.2498 2.89716 41.9069 3.68806 43.005 5.04972C43.9697 6.24334 44.9461 7.44857 45.7689 8.46836C47.0871 10.0965 49.1788 10.8875 51.2415 10.5398C52.4786 10.3283 53.9185 10.0849 55.3149 9.85026C56.8504 9.58952 58.4264 9.96036 59.6867 10.8759C60.9469 11.7914 61.7842 13.1762 62.0131 14.7175C62.2188 16.1168 62.4332 17.5625 62.6157 18.8024C62.9199 20.8739 64.3192 22.6179 66.2748 23.3683C67.5003 23.8347 68.9488 24.391 70.38 24.9386C72.014 25.5643 73.28 26.8941 73.8189 28.56C74.3607 30.2229 74.1202 32.0423 73.1641 33.5112C72.3298 34.7946 71.4838 36.0954 70.7682 37.1934C69.6268 38.9491 69.5196 41.1828 70.4901 43.0399C71.0724 44.1495 71.7475 45.4445 72.4051 46.6989C73.1265 48.078 73.2598 49.6917 72.7788 51.175C72.2979 52.6554 71.2405 53.881 69.844 54.5734C68.578 55.202 67.2685 55.851 66.1473 56.4101C64.2699 57.3401 63.0445 59.2088 62.9344 61.3005C62.8678 62.61 62.7895 64.16 62.7084 65.6896C62.6186 67.4395 61.7437 69.0503 60.3299 70.0788C58.9132 71.1073 57.1082 71.4434 55.4192 70.9885C53.9359 70.5887 52.438 70.186 51.1749 69.847C49.1527 69.3024 46.9943 69.8934 45.5284 71.3883C44.6505 72.2836 43.6279 73.3294 42.6399 74.3376C41.5506 75.453 40.0586 76.0788 38.4999 76.0788C36.9413 76.0788 35.4492 75.453 34.3599 74.3376C33.372 73.3294 32.3493 72.2836 31.4715 71.3883C30.0056 69.8934 27.8472 69.3024 25.825 69.847C24.5618 70.186 23.064 70.5887 21.5807 70.9885C19.8916 71.4434 18.0867 71.1073 16.67 70.0788C15.2562 69.0503 14.3813 67.4395 14.2915 65.6896C14.2103 64.16 14.1321 62.61 14.0655 61.3005C13.9554 59.2088 12.7299 57.3401 10.8526 56.4101C9.73138 55.851 8.42188 55.202 7.15583 54.5734C5.75941 53.881 4.70195 52.6554 4.22103 51.175C3.74011 49.6917 3.87337 48.078 4.59475 46.6989C5.2524 45.4445 5.92742 44.1495 6.50975 43.0399C7.48029 41.1828 7.37311 38.9491 6.23164 37.1934C5.51605 36.0954 4.6701 34.7946 3.83572 33.5112C2.87967 32.0423 2.63921 30.2229 3.18098 28.56C3.71984 26.8941 4.98588 25.5643 6.61987 24.9386C8.05105 24.391 9.4996 23.8347 10.7251 23.3683C12.6806 22.6179 14.08 20.8739 14.3842 18.8024C14.5667 17.5625 14.7811 16.1168 14.9868 14.7175C15.2157 13.1762 16.0529 11.7914 17.3132 10.8759C18.5734 9.96036 20.1495 9.58952 21.685 9.85026C23.0814 10.0849 24.5213 10.3283 25.7583 10.5398C27.8211 10.8875 29.9128 10.0965 31.231 8.46836C32.0538 7.44857 33.0302 6.24334 33.9949 5.04972Z" fill="#FFD2A1"/>
<path fill-rule="evenodd" clip-rule="evenodd" d="M31.741 3.22745L28.9771 6.64605C28.3195 7.46014 27.2736 7.85705 26.2422 7.68323L22.1689 6.99369C19.8656 6.60257 17.5016 7.15884 15.6097 8.53208C13.7208 9.90533 12.4635 11.9825 12.1216 14.2944L11.519 18.3794C11.3654 19.4137 10.6672 20.2857 9.68797 20.6623L5.58275 22.2326C3.13178 23.1713 1.23705 25.1674 0.425856 27.6648C-0.385342 30.1592 -0.0261047 32.8912 1.40508 35.0901L3.80392 38.7753C4.37465 39.6531 4.42681 40.7685 3.94299 41.6956L2.02795 45.3546C0.947322 47.4261 0.741625 49.8452 1.46591 52.0702C2.18729 54.2923 3.77492 56.1291 5.86665 57.1692L9.56631 59.003C10.5021 59.4695 11.1163 60.4053 11.1713 61.4511L11.3973 65.8403C11.5335 68.4622 12.8459 70.8813 14.9695 72.4225C17.0931 73.9667 19.799 74.4679 22.334 73.7871L26.5783 72.6457C27.5894 72.3734 28.6671 72.6659 29.4001 73.4163L32.2885 76.3656C33.9254 78.0344 36.162 78.9759 38.5 78.9759C40.838 78.9759 43.0746 78.0344 44.7114 76.3656L47.5999 73.4163C48.3329 72.6659 49.4106 72.3734 50.4217 72.6457L54.666 73.7871C57.201 74.4679 59.9069 73.9667 62.0305 72.4225C64.1541 70.8813 65.4665 68.4622 65.6027 65.8403L65.8287 61.4511C65.8837 60.4053 66.4979 59.4695 67.4337 59.003L71.1333 57.1692C73.2251 56.1291 74.8127 54.2923 75.5341 52.0702C76.2584 49.8452 76.0527 47.4261 74.972 45.3546L73.057 41.6956C72.5732 40.7685 72.6253 39.6531 73.1961 38.7753L75.5949 35.0901C77.0261 32.8912 77.3853 30.1592 76.5741 27.6648C75.7629 25.1674 73.8682 23.1713 71.4172 22.2326L67.312 20.6623C66.3328 20.2857 65.6346 19.4137 65.481 18.3794L64.8784 14.2944C64.5365 11.9825 63.2792 9.90533 61.3903 8.53208C59.4984 7.15884 57.1343 6.60257 54.8311 6.99369L50.7578 7.68323C49.7264 7.85705 48.6805 7.46014 48.0229 6.64605L45.259 3.22745C43.6076 1.18787 41.1248 0 38.5 0C35.8752 0 33.3924 1.18787 31.741 3.22745ZM36.246 6.87203C36.7965 6.1912 37.6251 5.79427 38.5 5.79427C39.3749 5.79427 40.2035 6.1912 40.754 6.87203L43.5149 10.2906C45.4908 12.7329 48.6284 13.9207 51.7254 13.3963L55.7959 12.7068C56.5636 12.5764 57.3517 12.7618 57.9832 13.2196C58.6148 13.6773 59.032 14.3698 59.145 15.1405L59.7505 19.2253C60.2082 22.3311 62.3057 24.9501 65.2405 26.0713L69.3458 27.6444C70.1628 27.9573 70.7944 28.6237 71.0638 29.4551C71.3332 30.2866 71.2144 31.1963 70.7364 31.9293L68.3405 35.6145C66.6283 38.248 66.469 41.6 67.9233 44.3812L69.8354 48.0403C70.1975 48.7298 70.2642 49.5381 70.0237 50.2798C69.7832 51.0186 69.256 51.6328 68.5578 51.9775L64.8582 53.8143C62.045 55.2107 60.2053 58.0151 60.0431 61.1527L59.8171 65.5418C59.7708 66.4139 59.3333 67.2222 58.6264 67.735C57.9166 68.2507 57.0156 68.4187 56.1696 68.1898L51.9253 67.0484C48.892 66.2343 45.6559 67.118 43.4599 69.3603L40.5714 72.3125C40.0239 72.8687 39.2793 73.1817 38.5 73.1817C37.7207 73.1817 36.9761 72.8687 36.4286 72.3125L33.5401 69.3603C31.3441 67.118 28.108 66.2343 25.0747 67.0484L20.8304 68.1898C19.9844 68.4187 19.0834 68.2507 18.3736 67.735C17.6667 67.2222 17.2292 66.4139 17.1829 65.5418L16.9569 61.1527C16.7947 58.0151 14.955 55.2107 12.1418 53.8143L8.44222 51.9775C7.74401 51.6328 7.21674 51.0186 6.97628 50.2798C6.73582 49.5381 6.80246 48.7298 7.1646 48.0403L9.07668 44.3812C10.531 41.6 10.3717 38.248 8.6595 35.6145L6.26358 31.9293C5.78555 31.1963 5.66675 30.2866 5.93619 29.4551C6.20562 28.6237 6.8372 27.9573 7.65419 27.6444L11.7595 26.0713C14.6943 24.9501 16.7917 22.3311 17.2495 19.2253L17.855 15.1405C17.968 14.3698 18.3852 13.6773 19.0167 13.2196C19.6483 12.7618 20.4364 12.5764 21.2041 12.7068L25.2746 13.3963C28.3716 13.9207 31.5092 12.7329 33.4851 10.2906L36.246 6.87203ZM48.2228 45.9225C45.0765 45.3547 42.0606 47.4464 41.4898 50.5927C40.922 53.739 43.0137 56.7577 46.16 57.3256C49.3063 57.8963 52.3251 55.8017 52.893 52.6554C53.4637 49.5091 51.3691 46.4933 48.2228 45.9225ZM48.0403 26.3987L24.8632 49.5758C23.7333 50.7057 23.7333 52.5424 24.8632 53.6723C25.9931 54.8022 27.8299 54.8022 28.9597 53.6723L52.1368 30.4952C53.2667 29.3654 53.2667 27.5286 52.1368 26.3987C51.0069 25.2688 49.1701 25.2688 48.0403 26.3987ZM30.84 22.7454C27.6937 22.1776 24.6778 24.2693 24.107 27.4156C23.5392 30.5619 25.6309 33.5807 28.7772 34.1485C31.9235 34.7192 34.9423 32.6246 35.5102 29.4783C36.0809 26.332 33.9863 23.3162 30.84 22.7454Z" fill="#1990A7"/>
</svg>
