<svg width="25" height="24" viewBox="0 0 25 24" fill="none" xmlns="http://www.w3.org/2000/svg">
<path d="M23.3 1.40271e-05H14.6672C14.5536 -0.000624536 14.4409 0.020545 14.3358 0.0623089C14.2306 0.104073 14.1349 0.165609 14.0542 0.24339L0.854616 13.1004C0.307414 13.6323 0 14.3538 0 15.1061C0 15.8584 0.307414 16.5799 0.854616 17.1119L6.56093 22.6592C7.10814 23.1911 7.85032 23.49 8.62418 23.49C9.39805 23.49 10.1402 23.1911 10.6874 22.6592L23.913 9.82738C23.993 9.74896 24.0563 9.65596 24.0992 9.55371C24.1422 9.45146 24.164 9.34197 24.1633 9.23152V0.839242C24.1633 0.616665 24.0724 0.403204 23.9105 0.245818C23.7486 0.0884324 23.529 1.40271e-05 23.3 1.40271e-05ZM22.4367 8.88744L9.48747 21.4759C9.37555 21.5886 9.24143 21.6782 9.09311 21.7394C8.94479 21.8006 8.78531 21.8322 8.62418 21.8322C8.46305 21.8322 8.30357 21.8006 8.15525 21.7394C8.00693 21.6782 7.87281 21.5886 7.7609 21.4759L2.05458 15.9453C1.93866 15.8366 1.84647 15.7062 1.7835 15.562C1.72053 15.4178 1.68808 15.2628 1.68808 15.1061C1.68808 14.9495 1.72053 14.7944 1.7835 14.6503C1.84647 14.5061 1.93866 14.3757 2.05458 14.2669L15.0039 1.67847H22.4367V8.88744Z" fill="#9DB2CE"/>
<path d="M18.1203 8.3923C18.6325 8.3923 19.1333 8.24464 19.5592 7.968C19.9851 7.69135 20.317 7.29814 20.513 6.83809C20.709 6.37805 20.7603 5.87183 20.6604 5.38344C20.5605 4.89506 20.3138 4.44645 19.9516 4.09435C19.5894 3.74224 19.128 3.50246 18.6256 3.40531C18.1232 3.30817 17.6025 3.35802 17.1292 3.54858C16.656 3.73914 16.2515 4.06184 15.9669 4.47587C15.6823 4.8899 15.5305 5.37667 15.5305 5.87462C15.5305 6.54235 15.8033 7.18273 16.289 7.65489C16.7747 8.12705 17.4334 8.3923 18.1203 8.3923ZM18.1203 5.03539C18.2911 5.03539 18.458 5.08461 18.5999 5.17683C18.7419 5.26904 18.8525 5.40011 18.9179 5.55346C18.9832 5.70681 19.0003 5.87555 18.967 6.03834C18.9337 6.20114 18.8515 6.35067 18.7307 6.46804C18.61 6.58541 18.4562 6.66534 18.2887 6.69772C18.1213 6.7301 17.9477 6.71348 17.7899 6.64996C17.6322 6.58645 17.4974 6.47888 17.4025 6.34087C17.3077 6.20286 17.257 6.0406 17.257 5.87462C17.257 5.65204 17.348 5.43858 17.5099 5.2812C17.6718 5.12381 17.8914 5.03539 18.1203 5.03539Z" fill="#9DB2CE"/>
</svg>
